<svg width="41" height="41" viewBox="0 0 41 41" fill="none" xmlns="http://www.w3.org/2000/svg">
<path d="M34.4926 34.3311C32.9392 35.8844 31.2226 37.1286 29.3426 38.0636C27.4959 38.9847 25.5173 39.613 23.4776 39.9261C19.3996 40.5581 15.2261 39.9073 11.5342 38.0636C9.65424 37.1286 7.93757 35.8844 6.38424 34.3303C4.83007 32.7769 3.58841 31.0644 2.65841 29.1894C0.807737 25.4962 0.154096 21.3181 0.788406 17.2361C1.10139 15.1961 1.72974 13.2172 2.65091 11.3703C3.58591 9.4911 4.83007 7.77443 6.38424 6.22026C7.93757 4.66693 9.65091 3.42526 11.5259 2.49526C13.3719 1.57105 15.3516 0.942559 17.3926 0.632764C19.4226 0.316097 21.4534 0.316097 23.4842 0.632764C25.5253 0.942573 27.5049 1.57107 29.3509 2.49526C31.2259 3.42526 32.9392 4.66693 34.4926 6.22026C36.0459 7.77443 37.2909 9.4911 38.2259 11.3703C39.1462 13.2143 39.7721 15.191 40.0809 17.2286C40.3975 19.2471 40.3975 21.3026 40.0809 23.3211C39.7712 25.3621 39.1427 27.3418 38.2184 29.1878C37.2884 31.0628 36.0459 32.7761 34.4934 34.3294L34.4926 34.3311ZM26.2467 25.8486L27.9634 25.8411V12.7519H14.8717L14.8651 14.4686L25.0259 14.4611L12.3151 27.1728L13.5426 28.4003L26.2534 15.6894L26.2451 25.8503L26.2467 25.8486Z" fill="white"/>
</svg>
