<svg width="40" height="41" viewBox="0 0 40 41" fill="none" xmlns="http://www.w3.org/2000/svg">
<path d="M34.1625 34.3311C32.6092 35.8844 30.8925 37.1286 29.0125 38.0636C27.1659 38.9847 25.1872 39.613 23.1475 39.9261C19.0696 40.5581 14.896 39.9073 11.2042 38.0636C9.32416 37.1286 7.60749 35.8844 6.05416 34.3303C4.49999 32.7769 3.25833 31.0644 2.32833 29.1894C0.477658 25.4962 -0.175982 21.3181 0.458328 17.2361C0.771316 15.1961 1.39966 13.2172 2.32083 11.3703C3.25583 9.4911 4.49999 7.77443 6.05416 6.22026C7.60749 4.66693 9.32083 3.42526 11.1958 2.49526C13.0418 1.57105 15.0215 0.942559 17.0625 0.632764C19.0925 0.316097 21.1233 0.316097 23.1542 0.632764C25.1952 0.942573 27.1749 1.57107 29.0208 2.49526C30.8958 3.42526 32.6092 4.66693 34.1625 6.22026C35.7158 7.77443 36.9608 9.4911 37.8958 11.3703C38.8161 13.2143 39.442 15.191 39.7508 17.2286C40.0674 19.2471 40.0674 21.3026 39.7508 23.3211C39.4411 25.3621 38.8126 27.3418 37.8883 29.1878C36.9583 31.0628 35.7158 32.7761 34.1633 34.3294L34.1625 34.3311ZM25.9167 25.8486L27.6333 25.8411V12.7519H14.5417L14.535 14.4686L24.6958 14.4611L11.985 27.1728L13.2125 28.4003L25.9233 15.6894L25.915 25.8503L25.9167 25.8486Z" fill="#121316"/>
</svg>
