<svg width="48" height="49" viewBox="0 0 48 49" fill="none" xmlns="http://www.w3.org/2000/svg">
<g clip-path="url(#clip0_89_397)">
<path d="M40.9954 41.1595C39.1314 43.0235 37.0714 44.5165 34.8154 45.6385C32.5994 46.7438 30.2251 47.4978 27.7774 47.8735C22.8839 48.632 17.8756 47.851 13.4454 45.6385C11.1894 44.5165 9.12938 43.0235 7.26538 41.1585C5.40038 39.2945 3.91038 37.2395 2.79438 34.9895C0.573581 30.5577 -0.210787 25.5439 0.550384 20.6455C0.92597 18.1975 1.67998 15.8228 2.78538 13.6065C3.90738 11.3515 5.40038 9.29152 7.26538 7.42652C9.12938 5.56252 11.1854 4.07252 13.4354 2.95652C15.6505 1.84747 18.0262 1.09328 20.4754 0.721523C22.9114 0.341523 25.3484 0.341523 27.7854 0.721523C30.2346 1.09329 32.6102 1.84749 34.8254 2.95652C37.0754 4.07252 39.1314 5.56252 40.9954 7.42652C42.8594 9.29152 44.3534 11.3515 45.4754 13.6065C46.5797 15.8193 47.3308 18.1914 47.7014 20.6365C48.0813 23.0587 48.0813 25.5253 47.7014 27.9475C47.3297 30.3968 46.5755 32.7724 45.4664 34.9875C44.3504 37.2375 42.8594 39.2935 40.9964 41.1575L40.9954 41.1595ZM31.1004 30.9805L33.1604 30.9715V15.2645H17.4504L17.4424 17.3245L29.6354 17.3155L14.3824 32.5695L15.8554 34.0425L31.1084 18.7895L31.0984 30.9825L31.1004 30.9805Z" fill="#40434F"/>
</g>
<defs>
<clipPath id="clip0_89_397">
<rect width="48" height="48" fill="white" transform="translate(0 0.189453)"/>
</clipPath>
</defs>
</svg>
